<svg height="436pt" viewBox="-75 0 436 436.907" width="436pt" xmlns="http://www.w3.org/2000/svg"><path d="M264.797 110.367c0-49.015-54.168-103.539-120.985-103.539S22.829 61.352 22.829 110.368c0 49.01 54.168 73.952 120.984 73.952s120.985-24.941 120.985-73.953zm0 0" fill="#fff"/><g fill="#54596e"><path d="M264.797 110.367h6.828c-.07-27.062-14.688-54.414-37.688-75.219C210.899 14.363 179.11.012 143.813 0 108.52.012 76.73 14.363 53.692 35.148c-23 20.805-37.622 48.157-37.688 75.22-.02 13.51 3.797 25.714 10.644 36.003 10.286 15.473 26.97 26.586 47.204 33.895 20.27 7.304 44.265 10.875 69.96 10.879 34.254-.024 65.508-6.31 88.903-19.477 11.683-6.598 21.422-14.988 28.262-25.297 6.847-10.289 10.664-22.496 10.644-36.004H257.97c-.016 10.992-2.973 20.29-8.367 28.457-8.079 12.219-22.079 21.973-40.461 28.598-18.348 6.629-40.91 10.078-65.328 10.07-32.563.028-61.801-6.16-82.192-17.715-10.21-5.765-18.187-12.8-23.594-20.953-5.394-8.172-8.351-17.465-8.37-28.457-.067-21.953 12.398-46.37 33.183-65.082 20.75-18.734 49.453-31.644 80.972-31.633 31.524-.011 60.227 12.899 80.977 31.63 20.785 18.714 33.25 43.132 33.18 65.081h6.828zm0 0"/><path d="M232.559 104.754c0-30.422-39.73-64.266-88.746-64.266-49.012 0-88.747 33.844-88.747 64.266 0 30.418 39.735 45.906 88.746 45.906 49.016 0 88.747-15.488 88.747-45.906zm0 0"/><path d="M232.559 104.754h6.828c-.004-9.106-2.957-18.106-7.953-26.399-7.524-12.449-19.676-23.503-34.79-31.578-15.117-8.062-33.265-13.113-52.832-13.117-26.093.016-49.636 8.961-66.894 22.13-8.633 6.593-15.711 14.26-20.723 22.565-5 8.293-7.949 17.293-7.957 26.399-.027 9.101 3.086 17.45 8.43 24.219 8.043 10.187 20.55 17.109 35.531 21.71 15.016 4.583 32.692 6.797 51.614 6.801 25.23-.023 48.238-3.906 65.699-12.21 8.715-4.172 16.105-9.504 21.449-16.301 5.344-6.77 8.457-15.118 8.426-24.22h-13.653c-.03 6.106-1.882 11.102-5.523 15.794-5.43 7-15.426 13.027-28.774 17.082-13.312 4.07-29.785 6.21-47.625 6.207-23.78.023-45.148-3.84-59.808-10.883-7.344-3.5-12.95-7.742-16.59-12.406-3.637-4.692-5.488-9.688-5.52-15.793-.007-6.102 2.008-12.746 5.993-19.352 5.949-9.906 16.304-19.55 29.52-26.578 13.21-7.047 29.21-11.515 46.406-11.511 22.917-.016 43.746 7.96 58.609 19.324 7.43 5.668 13.344 12.168 17.316 18.765 3.985 6.606 6 13.25 5.992 19.352zm0 0"/></g><path d="M266.695 266.105c0-109.433-55.02-54.19-122.882-54.19s-122.88-55.243-122.88 54.19c0 109.426 55.016 163.973 122.88 163.973s122.882-54.543 122.882-163.973" fill="#fff"/><path d="M266.695 266.105h6.825c-.055-27.78-3.293-45.796-10.547-58.015-3.633-6.07-8.493-10.57-14.086-13.27-5.586-2.718-11.668-3.675-17.867-3.675-12.536.043-26.051 3.718-40.735 7.152-14.656 3.469-30.355 6.797-46.472 6.789-16.114.008-31.813-3.32-46.47-6.79-14.683-3.433-28.202-7.108-40.734-7.151-6.203 0-12.28.957-17.867 3.68-4.183 2.027-7.992 5.054-11.14 9.01-4.739 5.962-8.036 13.821-10.227 23.958-2.18 10.152-3.266 22.676-3.27 38.316 0 55.825 14.032 98.454 37.524 127.329 23.457 28.898 56.43 43.527 92.184 43.468 35.753.059 68.726-14.57 92.183-43.469 23.492-28.878 37.524-71.507 37.524-127.332h-13.653c0 53.602-13.48 92.957-34.457 118.711-21.023 25.735-49.484 38.38-81.597 38.438-32.11-.059-60.575-12.703-81.594-38.438-20.98-25.75-34.457-65.109-34.461-118.71-.055-26.68 3.52-42.727 8.594-50.965 2.527-4.153 5.207-6.477 8.37-8.047 3.169-1.543 7.06-2.297 11.887-2.301 9.727-.043 22.766 3.254 37.594 6.793 14.863 3.5 31.633 7.148 49.61 7.152 17.98-.004 34.753-3.652 49.609-7.152 14.832-3.535 27.867-6.836 37.598-6.793 4.824 0 8.718.758 11.886 2.3 2.387 1.177 4.461 2.782 6.446 5.259 2.957 3.691 5.664 9.52 7.554 18.316 1.895 8.785 2.965 20.445 2.961 35.437z" fill="#54596e"/><path d="M27.758 265.414v.695c.004 53.598 13.48 92.957 34.46 118.711 21.02 25.73 49.485 38.375 81.594 38.434 32.114-.059 60.575-12.703 81.598-38.438 20.977-25.75 34.457-65.109 34.457-118.71h6.828-6.828v-.688c-16.605 68.805-62.238 103.223-116.055 103.223S44.36 334.219 27.758 265.414" fill="#eeeef0"/><path d="M22.781 236.64c-1.191 8.173-1.847 17.84-1.847 29.465 0 109.426 55.015 163.973 122.879 163.973 67.867 0 122.882-54.547 122.882-163.973h-6.828c0 53.602-13.48 92.957-34.457 118.711-21.023 25.735-49.484 38.38-81.597 38.438-32.11-.059-60.575-12.703-81.594-38.438-20.98-25.75-34.457-65.109-34.461-118.71v-.692c-2.172-9.004-3.848-18.594-4.977-28.773m242.067 0c-1.133 10.183-2.809 19.773-4.98 28.777v.687h6.827c0-11.625-.656-21.293-1.847-29.464" fill="#54596e"/><path d="M109.68 259.414c0 7.54-6.114 13.652-13.653 13.652-7.543 0-13.652-6.113-13.652-13.652 0-7.543 6.11-13.652 13.652-13.652 7.54 0 13.653 6.11 13.653 13.652zm0 0" fill="#f99"/><path d="M48.238 266.238c0-52.785-9.168-68.265-20.476-68.265-11.313 0-20.48-5-20.48 47.789 0 52.785 9.167 143.36 20.48 143.36 11.308 0 20.476-70.095 20.476-122.884zm0 0" fill="#fff"/><path d="M48.238 266.238h6.828c-.027-26.804-2.246-44.39-6.39-56.207-2.098-5.898-4.723-10.472-8.297-13.816-3.535-3.363-8.227-5.125-12.617-5.067-1.485 0-3.203-.125-5.215-.128-2.602.007-5.985.214-9.406 2.101-2.551 1.399-4.762 3.68-6.348 6.438-2.395 4.168-3.813 9.37-4.832 16.695-.992 7.328-1.504 16.832-1.508 29.508.004 26.773 2.309 62.75 6.055 92.332 1.879 14.804 4.101 27.957 6.68 37.785 1.308 4.937 2.656 9.016 4.378 12.383.887 1.687 1.844 3.23 3.317 4.699.742.727 1.637 1.441 2.793 2.016a9.15 9.15 0 0 0 4.086.968c2.515.012 4.73-1.027 6.238-2.203 2.848-2.27 4.316-4.93 5.809-8.047 2.492-5.449 4.496-12.629 6.336-21.32 5.445-25.973 8.906-65.16 8.921-98.137H41.414c.004 26-2.277 56.512-5.922 80.2-1.808 11.828-3.992 21.996-6.242 28.757-1.102 3.368-2.273 5.883-3.063 7.051l-.445.598-.078.082-.008.008 2.102 2.394v-3.035c-1.293-.004-2.098.621-2.102.64l2.102 2.395v-3.035 4.437l1.976-3.988a4.544 4.544 0 0 0-1.976-.449v4.437l1.976-3.988-1.222 2.465 1.93-1.992-.704-.473-1.222 2.465 1.93-1.992-.012.012.011-.012h-.004l-.011.012.015-.012c-.27-.238-1.437-2.313-2.445-5.375-1.855-5.414-3.762-13.95-5.445-24.13-5.086-30.612-8.457-76.417-8.45-107.948 0-10.93.403-19.25 1.106-25.442.527-4.644 1.226-8.082 1.96-10.465.556-1.789 1.122-2.968 1.567-3.668.707-1.046.895-1.042 1.203-1.207.313-.144 1.118-.316 2.606-.308 1.316-.004 3.09.125 5.21.129 1.263.058 1.958.23 3.325 1.422 2.012 1.761 4.961 6.863 6.977 16.632 2.066 9.735 3.355 23.895 3.351 43.387h6.828zm0 0" fill="#54596e"/><path d="M239.387 266.238c0-52.785 9.172-68.265 20.48-68.265 11.309 0 20.48-5 20.48 47.789 0 52.785-9.171 143.36-20.48 143.36-11.308 0-20.48-70.095-20.48-122.884zm0 0" fill="#fff"/><path d="M239.387 266.238h6.828c-.028-25.98 2.336-42.527 5.605-51.648 1.606-4.57 3.395-7.164 4.723-8.371 1.367-1.192 2.062-1.36 3.324-1.422 2.121-.004 3.895-.133 5.211-.125 1.793-.008 2.516.223 2.777.383.215.14.532.3 1.184 1.382.961 1.59 2.25 5.282 3.098 11.657.87 6.37 1.386 15.37 1.383 27.664.003 26.012-2.278 61.719-5.946 90.617-1.828 14.438-4.02 27.227-6.34 36.031-1.14 4.38-2.367 7.79-3.308 9.582l-.578.992-.188.254 1.61 1.457-1.043-1.867-.567.41 1.61 1.457-1.043-1.867 2.14 3.84v-4.371c-.898-.008-1.707.285-2.137.531l2.137 3.84v-4.371 3.285l2.051-2.683c-.133-.122-.945-.61-2.05-.602v3.285l2.05-2.683-.387.507.438-.465-.051-.042-.387.507.438-.465c-.09-.019-1.13-1.398-2.078-3.687-1.746-4.023-3.633-10.695-5.29-18.844-5.035-24.539-8.402-62.687-8.39-94.168h-13.652c.007 26.79 2.312 57.715 6.078 82.274 1.898 12.293 4.125 22.945 6.777 30.976 1.352 4.032 2.75 7.403 4.629 10.274.957 1.437 2.039 2.785 3.586 3.98 1.508 1.176 3.719 2.211 6.238 2.203a9.229 9.229 0 0 0 4.086-.972c2.234-1.145 3.504-2.657 4.567-4.137 1.925-2.809 3.203-6.027 4.488-9.988 2.187-6.887 4.082-15.95 5.793-26.524 5.105-31.668 8.363-76.644 8.37-108.566 0-11.262-.405-20.028-1.19-26.977-.594-5.219-1.395-9.422-2.481-12.957-.82-2.648-1.809-4.937-3.078-6.945-1.863-3.012-4.613-5.36-7.524-6.524-2.906-1.183-5.601-1.328-7.816-1.335-2.012.003-3.734.128-5.215.128-4.39-.058-9.082 1.704-12.617 5.067-5.336 5.066-8.64 12.68-11.043 23.816-2.352 11.176-3.64 26.11-3.645 46.207zm0 0" fill="#54596e"/><path d="M200.969 92c-3.828-8.484-17.246-10.703-29.973-4.96-12.723 5.745-19.934 17.276-16.105 25.757 3.828 8.484 17.25 10.703 29.972 4.96 12.723-5.745 19.938-17.277 16.106-25.757zm-84.367-4.95c-12.723-5.745-26.141-3.523-29.973 4.958-3.828 8.484 3.383 20.015 16.11 25.758 12.722 5.746 26.14 3.523 29.972-4.957 3.828-8.485-3.383-20.016-16.11-25.758zm0 0" fill="#55a6ff"/></svg>